<svg width="32" height="30" viewBox="0 0 32 30" fill="none" xmlns="http://www.w3.org/2000/svg">
<g clip-path="url(#clip0_28_799)">
<circle cx="16" cy="15" r="10" fill="#FFA500"/>
<path d="M22.1552 11.2435C22.0581 10.886 21.6768 10.678 21.2955 10.756C19.6453 11.1005 17.808 11.25 16.0885 11.25C14.3691 11.25 12.5317 11.1005 10.8816 10.756C10.5003 10.678 10.1189 10.886 10.0219 11.2435C9.92479 11.6075 10.1605 11.978 10.5419 12.0625C11.6581 12.2965 12.8645 12.459 14.0085 12.55V20.35C14.0085 20.7075 14.3205 21 14.7019 21C15.0832 21 15.3952 20.7075 15.3952 20.35V17.1H16.7819V20.35C16.7819 20.7075 17.0939 21 17.4752 21C17.8565 21 18.1685 20.7075 18.1685 20.35V12.55C19.3125 12.459 20.5189 12.2965 21.6283 12.0625C22.0165 11.978 22.2523 11.6075 22.1552 11.2435V11.2435ZM16.0885 10.6C16.8512 10.6 17.4752 10.015 17.4752 9.3C17.4752 8.585 16.8512 8 16.0885 8C15.3259 8 14.7019 8.585 14.7019 9.3C14.7019 10.015 15.3259 10.6 16.0885 10.6Z" fill="white"/>
</g>
<defs>
<clipPath id="clip0_28_799">
<rect width="32" height="30" fill="white"/>
</clipPath>
</defs>
</svg>
