<?xml version="1.0" encoding="UTF-8"?>
<svg id="Camada_1" data-name="Camada 1" xmlns="http://www.w3.org/2000/svg" viewBox="0 0 782.81 712.91">
  <defs>
    <style>
      .cls-1 {
        fill: #113859;
      }

      .cls-2 {
        fill: #6daadf;
      }
    </style>
  </defs>
  <path class="cls-1" d="M782.81,434.25c-.17,.43-.43,.86-.48,1.3-.95,7.97-4.26,14.91-9.69,20.71-5.99,6.41-13.21,11.1-21.6,13.79-9.62,3.08-19.09,2.22-28.36-1.54-6.2-2.51-11.79-6.05-17.05-10.14-.68-.52-1.37-1.02-2.41-1.79-.71,3.15-1.46,5.9-1.96,8.7-10.78,60.36-37.9,112.4-80.07,156.71-22.27,23.39-48.23,41.87-76.77,56.81-27.3,14.3-56.16,24.08-86.53,29.44-14.83,2.62-29.76,4.25-44.8,4.58-12.14,.26-24.27-.09-36.39-1.24-26.23-2.49-51.79-7.9-76.48-17.1-40.64-15.13-76.58-37.72-107.53-68.16-32.4-31.87-56.49-69.03-71.23-112.09-3.57-10.42-6.61-21.02-9.91-31.54-.29-.91-.6-1.82-.91-2.72-.76-2.15-2.06-3.61-4.37-4.36-4.65-1.51-8.24-4.58-11.02-8.5-2.4-3.38-4.5-6.96-6.91-10.74-.65,.19-1.54,.44-2.42,.72-7.83,2.51-15.6,5.22-23.5,7.5-22.89,6.61-44.47-5.25-54.84-19.5-5.46-7.5-8.16-15.83-7.5-25.18,.95-13.24,10.8-24.38,23.83-26.88,4.45-.85,8.9-.81,13.34,.06,4.52,.88,8.42,3,11.69,6.2,1.54,1.51,3.03,3.09,4.36,4.78,2.65,3.36,5.92,5.85,9.9,7.31,3.52,1.29,7.12,2.37,10.71,3.44,1.92,.57,2.88-.19,3.06-2.18,.07-.79,.04-1.6,0-2.4-.57-10.29-1.19-20.59-1.72-30.88-.61-11.74-.75-23.48-.23-35.23,1.36-31.05,6.75-61.26,18.71-90.1,4.66-11.24,10-22.14,16.81-32.26,8.08-12,18.13-21.89,31.05-28.65,7.18-3.75,14.71-6.17,22.94-5.94,4.86,.14,9.47,1.28,13.98,3.01,1.99,.77,4.05,1.36,5.88,1.97,.34-.23,.42-.27,.47-.32,.05-.05,.12-.12,.12-.19,.06-.63,.15-1.27,.15-1.9-.01-9.19-.03-18.39-.06-27.58,0-.22-.14-.45-.3-.88-2.39-.12-4.85-.34-7.31-.35-9.28,0-18.55,.08-27.83,.09-3.84,0-7.68-.07-11.51-.21-12.56-.46-22.68-9.63-24.15-21.84-1.52-12.65,6.18-24.36,18.3-27.71,1.68-.46,3.45-.78,5.19-.79,21.99-.08,43.98-.11,65.97-.12,6.55,0,11.91,2.68,16.2,7.56,1.22,1.38,2.38,2.8,3.59,4.19,.29,.33,.66,.6,1.41,1.25,.16-3.2,.41-5.95,.41-8.7,0-20.63-.04-41.25-.08-61.88-.02-8.08,1.12-15.97,4.6-23.32,8.04-16.97,21.6-26.43,40.11-28.89,3.23-.43,6.54-.46,9.81-.47,15.99-.05,31.99-.04,47.98-.05C389.49,.05,451.47,.02,513.45,0c5.36,0,10.72,0,16.07,.13,20.79,.53,39.01,13.98,45.7,33.67,1.89,5.58,2.6,11.33,2.59,17.22-.05,21.67-.03,43.33-.02,65,0,1.82,.14,3.65,.22,5.67,2.05-.39,3.27-1.6,4.43-2.88,3.6-3.98,8.04-6.6,13.29-7.62,2.88-.56,5.87-.77,8.81-.78,17.83-.03,35.67,.03,53.5,.11,3.19,.01,6.42-.02,9.56,.43,11.15,1.59,19.96,11.39,20.57,22.68,.39,7.24-1.47,13.8-6.36,19.29-3.88,4.36-8.77,7-14.6,7.39-5.66,.38-11.34,.47-17.01,.53-7.68,.08-15.35,0-23.03,.04-1.67,0-3.36,.11-5.02,.32-2.67,.34-3.8,1.45-4.31,4.06-.14,.7-.18,1.43-.19,2.15-.02,7.43-.02,14.87-.02,22.3,0,.23,.07,.46,.14,.9,1.75,.21,3.38-.47,5.05-.82,3.51-.74,7-1.66,10.55-2.12,8.24-1.08,16.05,.69,23.5,4.21,7.54,3.57,13.91,8.76,19.82,14.55,11.17,10.95,19.42,23.91,25.88,38.05,8.31,18.18,14,37.2,17.82,56.8,4.29,22.07,5.5,44.38,5.23,66.8-.05,4.48-.03,8.95-.02,13.43,0,.62,.11,1.24,.18,2.03,1.88-.28,3.6-.55,5.33-.8,6.54-.95,13.05-.96,19.53,.52,8.77,2.01,15.87,6.62,21.33,13.72,4.95,6.43,8.26,13.64,10.05,21.56,.31,1.39,.54,2.79,.81,4.19v11.51Zm-99.46-17.9c.24-8.09-.04-16.18-1.13-24.17-1.26-9.25-2.76-18.49-4.66-27.64-6.51-31.29-18.1-60.53-35.42-87.5-14.99-23.33-32.16-44.75-53.06-63.13-34.39-30.27-74.06-50.11-118.51-60.65-13.07-3.1-26.29-5.33-39.69-6.32-7.33-.54-14.67-1.16-22.01-1.26-6.3-.09-12.61,.44-18.91,.83-6.86,.43-13.72,.84-20.55,1.57-10.41,1.11-20.69,2.93-30.83,5.63-26.99,7.19-52.98,16.79-77.16,31-18.56,10.91-35.87,23.43-51.11,38.7-14.23,14.25-26.58,30.05-38.02,46.58-12.39,17.9-22.65,36.93-29.36,57.71-3.51,10.87-6.86,21.8-9.9,32.81-1.78,6.46-2.61,13.17-4.23,19.68-2,8.03-3.12,16.15-3.28,24.41-.18,9.19-.07,18.37,.82,27.55,1.02,10.51,2.48,20.95,4.61,31.28,6.44,31.21,18.07,60.4,34.44,87.73,18.19,30.38,40.96,56.7,69.17,78.23,29.46,22.48,62.05,38.64,97.87,48.21,12.59,3.36,25.34,5.96,38.28,7.52,8.8,1.06,17.61,2.13,26.44,2.69,9.66,.61,19.36,.16,28.97-.97,9.98-1.17,19.97-2.52,29.85-4.33,28.98-5.31,56.48-14.94,82.35-29.11,34.51-18.9,63.82-43.84,87.64-75.18,20.22-26.61,35.48-55.78,45.21-87.79,4.42-14.56,7.5-29.41,9.7-44.45,1.44-9.81,2.24-19.69,2.48-29.6ZM250.6,161.88c1.23-.62,2.01-.99,2.78-1.39,35.12-18.34,71.98-31.35,111.38-36.73,10.7-1.46,21.45-2.38,32.24-2.66,13.68-.35,27.33,.24,40.94,1.78,12.64,1.43,25.13,3.62,37.5,6.56,26.14,6.22,51.15,15.59,75.29,27.33,.76,.37,1.56,.68,2.66,1.16,.18-3.04,.48-5.73,.48-8.42,.03-31.98,.03-63.96,0-95.94,0-2.07-.07-4.17-.4-6.21-1.57-9.65-6.61-16.66-15.89-20.27-3.39-1.32-6.95-1.71-10.59-1.7-13.67,.02-27.35-.04-41.02-.03-69.17,.01-138.35,.02-207.52,.07-2.95,0-5.95,.04-8.83,.58-9.23,1.74-15.79,6.8-18.3,16.13-.76,2.82-1.06,5.84-1.08,8.77-.07,11.03,.09,22.06,.1,33.09,.02,23.5,0,47.01,.02,70.51,0,2.31,.15,4.62,.25,7.36ZM103.33,395.19c.18-.55,.43-1.14,.58-1.74,1.27-5.28,2.66-10.53,3.74-15.84,3.11-15.26,6.62-30.41,11.04-45.36,6.58-22.25,15.39-43.46,27.52-63.31,9.46-15.49,18.82-31.02,30.97-44.64,.58-.65,1.12-1.36,1.63-2.07,.33-.45,.61-.94,.85-1.44,.55-1.15,.31-2.21-.56-3.07-.5-.5-1.1-.94-1.72-1.28-4.15-2.3-8.61-3.36-13.35-3.1-10.2,.55-18.71,4.59-25.09,12.64-7,8.85-13.47,18.07-17.88,28.56-2.16,5.15-4.38,10.29-6.35,15.52-9.66,25.61-13.82,52.27-14.69,79.49-.34,10.62-.15,21.26,0,31.88,.06,4.06,.63,8.12,1.05,12.17,.17,1.66,.27,1.65,2.25,1.59ZM627.63,217.71c.65,.89,1.2,1.67,1.78,2.43,9.72,12.79,19.3,25.68,28.27,39.02,8.33,12.39,15.7,25.24,20.78,39.3,5.12,14.19,10.08,28.45,15.04,42.7,1.49,4.3,2.73,8.68,4.13,13.01,.21,.66,.12,1.76,1.72,1.39-.04-.87-.06-1.78-.14-2.7-.23-2.87-.48-5.73-.74-8.6-.94-10.42-1.74-20.86-2.87-31.26-1.6-14.75-5.09-29.09-10.15-43.03-4.04-11.14-8.89-21.9-15.32-31.9-4.12-6.41-8.86-12.33-14.33-17.65-4.89-4.75-10.69-7.19-17.55-6.83-3.89,.2-7.63,.9-10.62,4.11Zm-416.01-26.94c5.78-3.26,10.17-7.13,11.93-13.31,1.42-5.02,1.16-10.09,.33-15.17-.03-.21-.23-.39-.33-.55-3.41-.43-10.21-.3-11.93,.25v28.78Zm379.17-7.05c.33-1.59,.75-2.8,.79-4.03,.13-3.35,.2-6.71,.11-10.06-.06-1.98-.3-3.99-.77-5.91-.52-2.16-2.15-3.36-4.37-3.46-5.92-.26-7.64,.36-10.18,6.16-.22,.51-.34,1.06-.51,1.59-.66,1.96-.23,3.54,1.43,4.89,4.1,3.32,8.13,6.72,12.19,10.09,.23,.19,.53,.3,1.31,.74Z"/>
  <path class="cls-2" d="M683.35,416.35c-.24,9.92-1.04,19.79-2.48,29.6-2.2,15.04-5.28,29.89-9.7,44.45-9.73,32.01-24.99,61.18-45.21,87.79-23.81,31.34-53.13,56.29-87.64,75.18-25.87,14.17-53.37,23.8-82.35,29.11-9.89,1.81-19.87,3.16-29.85,4.33-9.61,1.13-19.31,1.58-28.97,.97-8.84-.56-17.65-1.63-26.44-2.69-12.94-1.56-25.69-4.15-38.28-7.52-35.82-9.57-68.41-25.73-97.87-48.21-28.21-21.52-50.98-47.84-69.17-78.23-16.36-27.33-27.99-56.51-34.44-87.73-2.13-10.33-3.59-20.77-4.61-31.28-.89-9.17-1-18.35-.82-27.55,.16-8.26,1.28-16.37,3.28-24.41,1.62-6.51,2.45-13.22,4.23-19.68,3.04-11.01,6.39-21.94,9.9-32.81,6.71-20.79,16.97-39.81,29.36-57.71,11.43-16.53,23.79-32.33,38.02-46.58,15.24-15.26,32.55-27.79,51.11-38.7,24.18-14.2,50.17-23.81,77.16-31,10.14-2.7,20.42-4.52,30.83-5.63,6.83-.73,13.69-1.14,20.55-1.57,6.3-.39,12.61-.92,18.91-.83,7.34,.1,14.68,.72,22.01,1.26,13.4,.99,26.62,3.22,39.69,6.32,44.45,10.55,84.12,30.39,118.51,60.65,20.9,18.39,38.07,39.8,53.06,63.13,17.32,26.96,28.92,56.21,35.42,87.5,1.9,9.14,3.4,18.38,4.66,27.64,1.09,8,1.38,16.08,1.13,24.17Zm-273.67,176.54c4.62-.26,9.27-.31,13.87-.81,10.35-1.12,20.47-3.43,30.31-6.86,33.96-11.85,61.78-32.46,84.74-59.84,18.8-22.42,31.66-48.09,40.36-75.92,4.73-15.14,7.79-30.63,9.75-46.37,1.23-9.91,1.02-19.72-.08-29.62-1.45-12.98-17.25-18.17-25.86-10.79-1.88,1.61-3.64,3.36-5.35,5.14-9.95,10.35-20.67,19.78-32.59,27.82-18.53,12.49-38.76,21.24-60.15,27.46-15.78,4.59-31.85,7.61-48.25,8.53-15.85,.9-31.61-.19-47.27-2.86-19.22-3.27-37.82-8.6-55.74-16.3-16.11-6.92-31.19-15.55-44.35-27.25-7.41-6.58-14.5-13.52-21.82-20.2-1.99-1.82-4.18-3.49-6.5-4.86-3.17-1.87-6.53-1.75-9.87-.14-7.9,3.79-12.11,9.87-11.99,18.79,.12,9.2,.78,18.36,2.03,27.47,2.13,15.47,5.7,30.62,10.48,45.48,13.26,41.15,36.05,75.85,69.91,103.05,12.34,9.91,25.6,18.3,40.18,24.55,21.78,9.34,44.63,13.13,68.2,13.53Zm-70.46-262.77c-.33-2.37-.47-4.78-1.02-7.09-2.7-11.42-8.24-21.41-15.77-30.33-6.03-7.14-13.39-12.57-21.97-16.25-13.66-5.86-27.86-7.25-42.48-4.7-13,2.27-24.51,7.69-34.22,16.63-11.26,10.37-18.3,23.1-20.45,38.33-.92,6.53,.46,12.74,3.7,18.47,3.63,6.41,10.74,7.61,16.19,5.11,4.04-1.86,6.51-5.16,7.3-9.51,.59-3.21,.73-6.5,1.25-9.73,1.58-9.84,6.83-17.48,14.66-23.34,11.15-8.35,23.6-10.11,36.82-6.31,11.17,3.21,19.48,10.04,24.5,20.64,1.73,3.64,2.61,7.52,3.26,11.48,.57,3.46,1.11,6.95,2.05,10.32,1.28,4.54,4.42,7.24,9.15,8.07,4.8,.84,8.43-.95,11.21-4.76,3.7-5.06,5.6-10.72,5.82-17.03Zm128.47-.28c.02,5.22,.98,9.99,3.35,14.35,.97,1.78,2.3,3.51,3.85,4.81,5.61,4.71,16.91,3.29,19.91-6.96,.64-2.2,1.02-4.54,1.12-6.83,.33-7.44,2.81-14.06,7.39-19.88,10.49-13.37,27.36-18.87,44.27-13.91,13.36,3.92,22.5,12.41,26.62,25.88,.81,2.66,1.09,5.47,1.65,8.21,.63,3.05,1.1,6.14,2,9.11,2.36,7.81,13.59,10.52,19.04,3.94,.97-1.16,1.89-2.38,2.67-3.68,4.28-7.11,5.04-14.79,3.01-22.66-3.2-12.39-9.37-23.24-18.31-32.39-12.49-12.81-28.2-18.25-45.7-19.21-5.52-.3-11.02,.34-16.44,1.37-21.8,4.15-38.04,15.94-48.26,35.69-3.63,7.01-6,14.45-6.19,22.18Z"/>
  <path class="cls-1" d="M409.69,592.88c-23.57-.4-46.43-4.19-68.2-13.53-14.58-6.25-27.84-14.64-40.18-24.55-33.85-27.2-56.65-61.9-69.91-103.05-4.79-14.86-8.35-30.01-10.48-45.48-1.26-9.11-1.91-18.27-2.03-27.47-.12-8.91,4.09-14.99,11.99-18.79,3.34-1.61,6.71-1.73,9.87,.14,2.32,1.37,4.51,3.04,6.5,4.86,7.32,6.68,14.41,13.62,21.82,20.2,13.15,11.69,28.24,20.33,44.35,27.25,17.92,7.7,36.52,13.03,55.74,16.3,15.66,2.67,31.43,3.75,47.27,2.86,16.4-.93,32.47-3.95,48.25-8.53,21.4-6.22,41.63-14.97,60.15-27.46,11.92-8.04,22.64-17.47,32.59-27.82,1.71-1.78,3.48-3.53,5.35-5.14,8.61-7.38,24.41-2.19,25.86,10.79,1.1,9.9,1.31,19.72,.08,29.62-1.96,15.74-5.01,31.23-9.75,46.37-8.7,27.83-21.56,53.5-40.36,75.92-22.95,27.37-50.78,47.99-84.74,59.84-9.83,3.43-19.95,5.74-30.31,6.86-4.6,.5-9.25,.55-13.87,.81Zm-154.19-178.01c-.94,2.15-.75,3.9-.34,5.59,1.45,5.97,2.86,11.96,4.5,17.87,2.72,9.8,6.45,19.23,10.74,28.44,4.53,9.72,9.79,19.06,16.15,27.7,4.35,5.91,8.86,11.74,13.81,17.14,7.01,7.65,14.45,14.91,22.62,21.37,8.05,6.37,16.67,11.85,25.84,16.4,7.3,3.62,14.91,6.52,22.73,8.86,11.15,3.33,22.48,5.44,34.16,5.19,4.31-.09,8.66-.04,12.9-.64,5.51-.78,10.98-1.97,16.39-3.31,8.32-2.06,16.23-5.33,23.88-9.16,4.78-2.39,9.4-5.11,13.96-7.9,10.66-6.53,20.54-14.12,29.46-22.88,5.01-4.92,9.6-10.25,14-15.74,8.22-10.25,15.39-21.19,21.3-32.92,5.98-11.86,10.57-24.27,14.43-36.97,1.61-5.29,2.55-10.71,3.4-16.15,.18-1.16,.36-2.4-1.01-3.46-.9,.48-1.91,.93-2.82,1.53-12.92,8.6-26.25,16.46-40.41,22.89-8.08,3.67-16.27,7.03-24.66,9.9-10.36,3.55-20.93,6.35-31.67,8.44-6.1,1.18-12.25,2.13-18.4,2.93-4.34,.57-8.73,.78-13.1,1.05-5.41,.34-10.82,.67-16.24,.84-2.46,.08-4.93-.37-7.4-.35-8.39,.07-16.75-.33-25.07-1.45-7.34-.99-14.72-1.77-22-3.1-14.63-2.69-28.9-6.75-42.77-12.19-9.83-3.86-19.39-8.29-28.58-13.48-7.86-4.45-15.54-9.19-22.78-14.61-.87-.65-1.86-1.13-3.02-1.83Z"/>
  <path class="cls-1" d="M339.23,330.11c-.22,6.31-2.12,11.97-5.82,17.03-2.79,3.81-6.42,5.6-11.21,4.76-4.73-.83-7.88-3.53-9.15-8.07-.95-3.37-1.48-6.86-2.05-10.32-.66-3.96-1.54-7.84-3.26-11.48-5.02-10.61-13.33-17.44-24.5-20.64-13.22-3.79-25.67-2.03-36.82,6.31-7.83,5.87-13.08,13.5-14.66,23.34-.52,3.23-.66,6.52-1.25,9.73-.8,4.35-3.26,7.65-7.3,9.51-5.45,2.5-12.56,1.3-16.19-5.11-3.24-5.73-4.63-11.94-3.7-18.47,2.16-15.23,9.19-27.96,20.45-38.33,9.72-8.94,21.22-14.37,34.22-16.63,14.62-2.55,28.81-1.16,42.48,4.7,8.58,3.68,15.94,9.12,21.97,16.25,7.54,8.91,13.07,18.9,15.77,30.33,.55,2.32,.69,4.73,1.02,7.09Z"/>
  <path class="cls-1" d="M467.7,329.83c.19-7.72,2.57-15.17,6.19-22.18,10.22-19.76,26.46-31.54,48.26-35.69,5.42-1.03,10.91-1.68,16.44-1.37,17.51,.96,33.21,6.4,45.7,19.21,8.93,9.16,15.11,20,18.31,32.39,2.03,7.87,1.27,15.55-3.01,22.66-.78,1.29-1.71,2.51-2.67,3.68-5.45,6.57-16.68,3.87-19.04-3.94-.9-2.97-1.37-6.06-2-9.11-.56-2.73-.84-5.55-1.65-8.21-4.12-13.47-13.26-21.96-26.62-25.88-16.92-4.96-33.78,.55-44.27,13.91-4.57,5.83-7.05,12.44-7.39,19.88-.1,2.29-.48,4.63-1.12,6.83-3,10.25-14.3,11.67-19.91,6.96-1.55-1.3-2.88-3.03-3.85-4.81-2.37-4.35-3.33-9.12-3.35-14.35Z"/>
</svg>